<?xml version="1.0" encoding="UTF-8" standalone="no"?>
<svg
   viewBox="-2.5 -1.18422 1.5 1.5"
   preserveAspectRatio="xMidYMid"
   version="1.1"
   id="svg1"
   sodipodi:docname="square wave icon.svg"
   inkscape:version="1.3.2 (091e20e, 2023-11-25)"
   width="1.5"
   height="1.5"
   xmlns:inkscape="http://www.inkscape.org/namespaces/inkscape"
   xmlns:sodipodi="http://sodipodi.sourceforge.net/DTD/sodipodi-0.dtd"
   xmlns="http://www.w3.org/2000/svg"
   xmlns:svg="http://www.w3.org/2000/svg">
  <defs
     id="defs1" />
  <sodipodi:namedview
     id="namedview1"
     pagecolor="#3ae13d"
     bordercolor="#000000"
     borderopacity="0.25"
     inkscape:showpageshadow="2"
     inkscape:pageopacity="0.0"
     inkscape:pagecheckerboard="0"
     inkscape:deskcolor="#d1d1d1"
     inkscape:zoom="99.64323"
     inkscape:cx="0.0050179024"
     inkscape:cy="1.6408541"
     inkscape:window-width="1440"
     inkscape:window-height="872"
     inkscape:window-x="0"
     inkscape:window-y="0"
     inkscape:window-maximized="0"
     inkscape:current-layer="svg1" />
  <g
     id="g1"
     transform="translate(-2.2517902,0.30107414)">
    <path
       d="m -2.4999899,0.92158722 q 0.011926,10e-9 0.02463,0.0147883 0.010701,0.0124562 0.024631,0.0391056 0.012315,0.0247002 0.024631,0.0494004 0.014356,0.028302 0.024631,0.041623 0.012906,0.016732 0.02463,0.017907 0.012125,0.00122 0.024631,-0.013941 0.011076,-0.013423 0.024631,-0.042815 0.00409,-0.00887 0.02463,-0.057866 0.014984,-0.035742 0.024631,-0.0521718 0.013163,-0.0224179 0.02463,-0.0253912 0.012381,-0.00321 0.024631,0.0154586 0.011514,0.0175479 0.024631,0.0574355 0.00848,0.0257892 0.02463,0.0850052 0.016529,0.060604 0.024631,0.084394 0.013659,0.040109 0.024631,0.04775 0.012927,0.009 0.024631,-0.024075 0.012473,-0.035253 0.02463,-0.1209877 0.012048,-0.0849658 0.024631,-0.22558155 0.011455,-0.12801599 0.02463,-0.31711403 0.00986,-0.14156519 0.02463,-0.37650331 0.022582,-0.35926537 0.024631,-0.39104852 0.013846,-0.21477421 0.02463,-0.35760733 0.012898,-0.17081774 0.024631,-0.28338654 0.012406,-0.11902242 0.02463,-0.18413192 0.011988,-0.063849 0.02463,-0.080201 0.011471,-0.014837 0.024631,0.00843 0.010406,0.018395 0.02463,0.06689 0.012315,0.044348 0.024631,0.088696 0.014188,0.0504896 0.02463,0.0766796 0.012714,0.0318858 0.024631,0.0414943 0.011962,0.009645 0.02463,-0.001842 0.011009,-0.009983 0.02463,-0.038343 0.00646,-0.0134563 0.024631,-0.0571274 0.015246,-0.0366489 0.02463,-0.0540735 0.013039,-0.024211 0.024631,-0.032367 0.012203,-0.00859 0.02463,-9.008e-4 0.011319,0.007 0.02463,0.028914 0.00846,0.013934 0.024631,0.046908 0.016493,0.03364 0.02463,0.0473558 0.013299,0.0224155 0.024631,0.0306496 0.012391,0.009004 0.02463,0.003001 0.011558,-0.005668 0.024631,-0.0257133 0.00947,-0.014514 0.02463,-0.045263 0.018659,-0.0378346 0.02463,-0.0484813 0.013573,-0.0242 0.024631,-0.033721 0.012579,-0.010831 0.02463,-0.00556 0.011789,0.00516 0.024631,0.026502 0.010189,0.016937 0.02463,0.051005 0.012315,0.0291314 0.024631,0.0582628 0.013937,0.0309349 0.02463,0.0437566 0.01282,0.0153708 0.02463,0.0101191 0.012082,-0.005372 0.024631,-0.0329705 0.010911,-0.0239971 0.02463,-0.0710516 0.012315,-0.0443767 0.024631,-0.0887534 0.01467,-0.052137 0.02463,-0.074225 0.0133,-0.029493 0.02463,-0.022874 0.012731,0.00744 0.024631,0.060676 0.012309,0.055071 0.02463,0.16304253 0.011848,0.10381677 0.024631,0.26492305 0.011062,0.13941654 0.02463,0.3456249 0.00723,0.10984401 0.024631,0.3881136 0.015656,0.25033874 0.02463,0.38325089 0.013352,0.19774055 0.02463,0.33208782 0.012679,0.15102647 0.02463,0.24560011 0.012239,0.096849 0.02463,0.141938 0.011805,0.042956 0.02463,0.041923 0.011167,-8.994e-4 0.024631,-0.036004 0.00928,-0.024207 0.02463,-0.080056 0.019059,-0.0693564 0.02463,-0.0874971 0.01338,-0.0435628 0.02463,-0.0645968 0.012396,-0.0231746 0.02463,-0.0242496 0.011648,-0.001023 0.02463,0.0180016 0.010269,0.0150488 0.024631,0.0483814 0.012315,0.0292519 0.02463,0.0585038 0.013924,0.031747 0.02463,0.04723 0.012667,0.018319 0.02463,0.020329 0.011894,0.002 0.02463,-0.01186 0.010726,-0.01167 0.024631,-0.037977 0.012315,-0.024657 0.02463,-0.0493144 0.014419,-0.0286245 0.02463,-0.0424986 0.012879,-0.0174972 0.02463,-0.0204001 0.012086,-0.002985 0.02463,0.00896 0.011056,0.0105283 0.02463,0.035136 0.00497,0.009 0.02463,0.048743 0.015025,0.030365 0.02463,0.044613 0.013094,0.019423 0.02463,0.023618 0.012278,0.00446 0.02463,-0.00743 0.01136,-0.010941 0.02463,-0.037834 0.0079,-0.016014 0.024631,-0.0563765 0.016019,-0.0386508 0.02463,-0.0550942 0.013371,-0.02553 0.02463,-0.0321982 0.012524,-0.007417 0.02463,0.006721 0.011731,0.0136994 0.02463,0.0496922 0.00973,0.0271545 0.024631,0.0813665 0.019198,0.069858 0.02463,0.087261 0.013904,0.044544 0.02463,0.058057 0.013037,0.016425 0.02463,-0.00726 0.012561,-0.025651 0.024635,-0.1003585 0.012138,-0.0751083 0.02463,-0.20503512 0.011604,-0.1206896 0.0246305,-0.30083345 0.0104096,-0.1439545 0.0246306,-0.36793034 Q 1.00075e-5,4.309951e-6 0.01232531,-0.19601055 q 0.014221,-0.22397584 0.02463,-0.36793032 0.013027,-0.18014385 0.02463,-0.30083344 0.012492,-0.12992704 0.02463,-0.20503539 0.012074,-0.074708 0.024631,-0.1003557 0.011594,-0.023681 0.02463,-0.00726 0.010726,0.013514 0.02463,0.058057 0.00543,0.017403 0.02463,0.087261 0.014898,0.0542121 0.024631,0.0813665 0.0129,0.0359928 0.02463,0.0496922 0.012107,0.0141383 0.02463,0.006721 0.01126,-0.006668 0.02463,-0.0321982 0.00861,-0.0164434 0.02463,-0.0550942 0.016728,-0.0403622 0.02463,-0.0563765 0.01327,-0.026892 0.02463,-0.037834 0.012353,-0.011898 0.02463,-0.00743 0.011537,0.00419 0.02463,0.023618 0.0096,0.014248 0.02463,0.044613 0.019666,0.0397431 0.02463,0.048743 0.013575,0.0246077 0.024631,0.035136 0.012544,0.0119458 0.02463,0.00896 0.011752,-0.002903 0.02463,-0.0204001 0.010212,-0.0138741 0.02463,-0.0424986 0.012315,-0.0246572 0.02463,-0.0493144 0.013905,-0.026307 0.02463,-0.037977 0.012737,-0.013858 0.02463,-0.01186 0.011964,0.00201 0.02463,0.020329 0.010706,0.015484 0.02463,0.04723 0.012315,0.0292519 0.02463,0.0585038 0.014362,0.0333326 0.024631,0.0483814 0.012982,0.019025 0.02463,0.0180016 0.012235,-0.001075 0.02463,-0.0242496 0.011251,-0.0210341 0.02463,-0.0645968 0.00557,-0.0181407 0.02463,-0.0874971 0.015347,-0.05585 0.02463,-0.080056 0.013463,-0.035105 0.024631,-0.036004 0.012825,-0.00103 0.02463,0.041923 0.012391,0.045089 0.02463,0.141938 0.011952,0.0945739 0.02463,0.24560039 0.011279,0.13434727 0.02463,0.33208782 0.00897,0.13291215 0.02463,0.38325089 0.017403,0.27826959 0.024631,0.3881136 0.013569,0.20620836 0.02463,0.3456249 0.012783,0.16110628 0.024631,0.26492305 0.012322,0.10797125 0.02463,0.16304225 0.011899,0.053238 0.024631,0.060676 0.011331,0.00662 0.02463,-0.022874 0.00996,-0.022088 0.02463,-0.074225 0.012315,-0.044377 0.024631,-0.0887534 0.013719,-0.0470545 0.02463,-0.0710516 0.012548,-0.0275981 0.024631,-0.0329705 0.011811,-0.005252 0.02463,0.0101191 0.010694,0.0128217 0.02463,0.0437566 0.012315,0.0291314 0.024631,0.0582628 0.014441,0.034068 0.02463,0.051005 0.012842,0.021347 0.024631,0.026502 0.012051,0.00527 0.02463,-0.00556 0.011058,-0.00952 0.024631,-0.033721 0.00597,-0.010647 0.02463,-0.0484813 0.015165,-0.030749 0.02463,-0.045263 0.013073,-0.0200451 0.024631,-0.0257133 0.01224,-0.006003 0.02463,0.003001 0.011331,0.008234 0.024631,0.0306496 0.00814,0.0137158 0.02463,0.0473558 0.016167,0.032975 0.024631,0.046908 0.013311,0.021913 0.02463,0.028914 0.012428,0.00769 0.02463,-9.008e-4 0.011591,-0.00816 0.024631,-0.032367 0.00938,-0.017425 0.02463,-0.0540735 0.018168,-0.0436711 0.024631,-0.0571274 0.013621,-0.0283601 0.02463,-0.038343 0.012669,-0.0114874 0.02463,-0.001842 0.011917,0.009608 0.024631,0.0414943 0.010443,0.02619 0.02463,0.0766796 0.012315,0.044348 0.024631,0.088696 0.014225,0.048495 0.02463,0.06689 0.01316,0.023263 0.024631,0.00843 0.012642,-0.016352 0.02463,-0.080201 0.012225,-0.065109 0.02463,-0.18413164 0.011733,-0.1125688 0.024631,-0.28338654 0.010784,-0.14283312 0.02463,-0.35760733 0.00205,-0.0317831 0.024631,-0.39104852 0.014767,-0.23493812 0.02463,-0.37650331 0.013175,-0.18909804 0.024631,-0.31711403 0.012583,-0.140616 0.024631,-0.22558183 0.012157,-0.085735 0.02463,-0.1209877 0.011704,-0.033078 0.024631,-0.024075 0.010971,0.00764 0.024631,0.04775 0.0081,0.023789 0.024631,0.084394 0.01615,0.059216 0.02463,0.0850052 0.013116,0.0398876 0.024631,0.0574355 0.01225,0.0186686 0.024631,0.0154586 0.011468,-0.002973 0.024631,-0.0253912 0.00965,-0.0164298 0.024631,-0.0521718 0.020541,-0.0489986 0.02463,-0.057866 0.013555,-0.029392 0.024631,-0.042815 0.012506,-0.015156 0.024631,-0.013941 0.011725,0.00118 0.02463,0.017907 0.010275,0.013321 0.024631,0.041623 0.012315,0.0247 0.024631,0.0494004 0.013929,0.0266495 0.024631,0.0391056 0.012705,0.0147883 0.024631,0.0147883"
       stroke="#000000"
       fill="none"
       stroke-width="0.4"
       id="back-black"
       style="stroke-opacity:1" />
    <path
       d="m -2.4999918,0.92158848 q 0.011926,0 0.024631,0.014788 0.010701,0.012456 0.024631,0.039106 0.012315,0.0247 0.024631,0.0494 0.014356,0.028302 0.024631,0.041623 0.012906,0.016732 0.02463,0.017907 0.012125,0.00122 0.024631,-0.013941 0.011076,-0.013423 0.024631,-0.042815 0.00409,-0.00887 0.02463,-0.057866 0.014984,-0.035742 0.024631,-0.052172 0.013163,-0.0224179 0.02463,-0.0253912 0.012381,-0.00321 0.024631,0.0154586 0.011514,0.017548 0.024631,0.057435 0.00848,0.025789 0.02463,0.085005 0.016529,0.060604 0.024631,0.084394 0.013659,0.040109 0.024631,0.04775 0.012927,0.009 0.024631,-0.024075 0.012474,-0.035253 0.02463,-0.1209877 0.012048,-0.084966 0.024631,-0.22558207 0.011455,-0.12801599 0.02463,-0.31711403 0.00986,-0.14156519 0.024631,-0.37650331 0.022582,-0.35926537 0.024631,-0.39104852 0.013846,-0.21477421 0.02463,-0.35760733 0.012898,-0.17081774 0.024631,-0.28338654 0.012406,-0.1190219 0.02463,-0.1841314 0.011988,-0.063849 0.02463,-0.080201 0.011471,-0.014837 0.024631,0.00843 0.010406,0.018395 0.02463,0.06689 0.012315,0.044348 0.024631,0.088696 0.014188,0.0504896 0.02463,0.0766796 0.012714,0.0318858 0.024631,0.0414943 0.011962,0.009645 0.02463,-0.001842 0.011009,-0.009983 0.02463,-0.038343 0.00646,-0.0134563 0.024631,-0.0571274 0.015246,-0.0366489 0.02463,-0.0540735 0.013039,-0.024211 0.024631,-0.032367 0.012203,-0.00859 0.02463,-9.008e-4 0.011319,0.007 0.02463,0.028914 0.00846,0.013934 0.024631,0.046908 0.016493,0.03364 0.02463,0.0473558 0.013299,0.0224155 0.024631,0.0306496 0.012391,0.009004 0.02463,0.003001 0.011558,-0.005668 0.024631,-0.0257133 0.00947,-0.014514 0.02463,-0.045263 0.018659,-0.0378346 0.02463,-0.0484813 0.013573,-0.0242 0.024631,-0.033721 0.012579,-0.010831 0.02463,-0.00556 0.011789,0.00516 0.024631,0.026502 0.010189,0.016937 0.02463,0.051005 0.012315,0.0291314 0.024631,0.0582628 0.013937,0.0309349 0.02463,0.0437566 0.01282,0.0153708 0.02463,0.0101191 0.012082,-0.005372 0.024631,-0.0329705 0.010911,-0.0239971 0.02463,-0.0710516 0.012315,-0.0443767 0.024631,-0.0887534 0.01467,-0.052137 0.02463,-0.074225 0.0133,-0.029493 0.02463,-0.022874 0.012732,0.00744 0.024631,0.060676 0.012309,0.055071 0.02463,0.16304203 0.011848,0.10381677 0.024631,0.26492305 0.011062,0.13941654 0.02463,0.3456249 0.00723,0.10984401 0.0246305,0.3881136 0.0156559,0.25033874 0.0246306,0.38325089 0.013352,0.19774055 0.0246305,0.33208782 0.0126788,0.15102642 0.0246305,0.24560061 0.0122393,0.096849 0.0246305,0.141938 0.011805,0.042956 0.0246305,0.041923 0.0111675,-8.994e-4 0.0246306,-0.036004 0.009283,-0.024207 0.0246305,-0.080056 0.0190587,-0.069356 0.0246305,-0.087497 0.01338,-0.043563 0.0246305,-0.064597 0.0123955,-0.0231746 0.0246305,-0.0242496 0.0116483,-0.001023 0.0246305,0.0180016 0.010269,0.015049 0.0246306,0.048381 0.0123153,0.029252 0.0246305,0.058504 0.0139242,0.031747 0.0246305,0.04723 0.0126666,0.018319 0.0246305,0.020329 0.011894,0.002 0.0246305,-0.01186 0.0107256,-0.01167 0.0246305,-0.037977 0.0123153,-0.024657 0.0246305,-0.049314 0.0144187,-0.028625 0.0246305,-0.042499 0.0128785,-0.017497 0.0246305,-0.0204 0.0120863,-0.00299 0.0246305,0.00896 0.0110557,0.010528 0.0246306,0.035136 0.004965,0.009 0.0246305,0.048743 0.0150252,0.030365 0.0246305,0.044613 0.0130939,0.019423 0.0246305,0.023618 0.0122779,0.00446 0.0246305,-0.00743 0.01136,-0.010941 0.0246305,-0.037834 0.007903,-0.016014 0.0246305,-0.056377 0.0160186,-0.038651 0.0246305,-0.055094 0.013371,-0.02553 0.0246305,-0.0321982 0.0125239,-0.007417 0.0246305,0.006721 0.0117309,0.013699 0.0246305,0.049692 0.009732,0.027154 0.0246306,0.081366 0.0191983,0.069858 0.0246305,0.087261 0.0139044,0.044544 0.0246305,0.058057 0.0130369,0.016425 0.0246305,-0.00726 0.0125569,-0.025648 0.0246305,-0.1003557 0.0121384,-0.075108 0.0246305,-0.20503561 0.011604,-0.12068959 0.0246305,-0.30083344 0.010412,-0.1439573 0.024633,-0.36793314 Q 7.697003e-6,3.140289e-6 0.0123237,-0.19601172 q 0.014221,-0.22397584 0.02463,-0.36793032 0.013027,-0.18014385 0.024631,-0.30083344 0.012492,-0.12992704 0.02463,-0.20503532 0.012074,-0.074708 0.02463,-0.1003557 0.011594,-0.023681 0.02463,-0.00726 0.010726,0.013514 0.02463,0.058057 0.00543,0.017403 0.02463,0.087261 0.014898,0.0542121 0.024631,0.0813665 0.0129,0.0359928 0.02463,0.0496922 0.012107,0.0141383 0.02463,0.006721 0.01126,-0.006668 0.02463,-0.0321982 0.00861,-0.0164434 0.02463,-0.0550942 0.016728,-0.0403622 0.02463,-0.0563765 0.01327,-0.026892 0.02463,-0.037834 0.012353,-0.011898 0.02463,-0.00743 0.011537,0.00419 0.02463,0.023618 0.00961,0.014248 0.02463,0.044613 0.019666,0.0397431 0.02463,0.048743 0.013575,0.0246077 0.024631,0.035136 0.012544,0.0119458 0.02463,0.00896 0.011752,-0.002903 0.02463,-0.0204001 0.010212,-0.0138741 0.02463,-0.0424986 0.012315,-0.0246572 0.02463,-0.0493144 0.013905,-0.026307 0.02463,-0.037977 0.012736,-0.013858 0.02463,-0.01186 0.011964,0.00201 0.02463,0.020329 0.010706,0.015484 0.02463,0.04723 0.012315,0.0292519 0.02463,0.0585038 0.014362,0.0333326 0.024631,0.0483814 0.012982,0.019025 0.02463,0.0180016 0.012235,-0.001075 0.02463,-0.0242496 0.011251,-0.0210341 0.02463,-0.0645968 0.00557,-0.0181407 0.02463,-0.0874971 0.015347,-0.05585 0.02463,-0.080056 0.013463,-0.035105 0.024631,-0.036004 0.012825,-0.00103 0.02463,0.041923 0.012391,0.045089 0.02463,0.1419379 0.011952,0.0945739 0.02463,0.24560042 0.011279,0.13434727 0.02463,0.33208782 0.00897,0.13291215 0.024631,0.38325089 0.017403,0.27826959 0.024631,0.3881136 0.013569,0.20620836 0.02463,0.3456249 0.012783,0.16110628 0.024631,0.264923 0.012322,0.10797137 0.02463,0.16304237 0.011899,0.053238 0.024631,0.060676 0.011331,0.00662 0.02463,-0.022874 0.00996,-0.022088 0.02463,-0.074225 0.012315,-0.044377 0.024631,-0.088753 0.013719,-0.047055 0.02463,-0.071052 0.012548,-0.0275981 0.024631,-0.0329705 0.011811,-0.005252 0.02463,0.0101191 0.010694,0.012822 0.02463,0.043757 0.012315,0.029131 0.024631,0.058263 0.014441,0.034068 0.02463,0.051005 0.012842,0.021347 0.024631,0.026502 0.012051,0.00527 0.02463,-0.00556 0.011058,-0.00952 0.024631,-0.033721 0.00597,-0.010647 0.02463,-0.048481 0.015165,-0.030749 0.02463,-0.045263 0.013073,-0.020045 0.024631,-0.025713 0.01224,-0.006 0.02463,0.003 0.011331,0.00823 0.024631,0.03065 0.00814,0.013716 0.02463,0.047356 0.016167,0.032975 0.024631,0.046908 0.013311,0.021913 0.02463,0.028914 0.012428,0.00769 0.02463,-9.008e-4 0.011591,-0.00816 0.024631,-0.032367 0.00938,-0.017425 0.02463,-0.054074 0.018168,-0.043671 0.024631,-0.057127 0.013621,-0.02836 0.02463,-0.038343 0.012669,-0.0114874 0.02463,-0.001842 0.011917,0.009608 0.024631,0.0414943 0.010443,0.02619 0.02463,0.07668 0.012315,0.044348 0.024631,0.088696 0.014225,0.048495 0.02463,0.06689 0.01316,0.023263 0.024631,0.00843 0.012642,-0.016352 0.02463,-0.080201 0.012225,-0.065109 0.02463,-0.18413167 0.011733,-0.11256884 0.024631,-0.28338658 0.010784,-0.14283312 0.02463,-0.35760733 0.00205,-0.0317831 0.024631,-0.39104852 0.014767,-0.23493812 0.024631,-0.37650331 0.013175,-0.18909804 0.02463,-0.31711403 0.012583,-0.140616 0.024631,-0.22558176 0.012157,-0.085735 0.02463,-0.1209877 0.011704,-0.033078 0.024631,-0.024075 0.010971,0.00764 0.024631,0.04775 0.0081,0.023789 0.024631,0.084394 0.01615,0.059216 0.02463,0.0850052 0.013116,0.0398876 0.024631,0.0574355 0.01225,0.0186686 0.024631,0.0154586 0.011468,-0.002973 0.02463,-0.0253912 0.00965,-0.0164298 0.024631,-0.0521718 0.020541,-0.0489986 0.02463,-0.057866 0.013555,-0.029392 0.024631,-0.042815 0.012506,-0.015156 0.024631,-0.013941 0.011725,0.00118 0.02463,0.017907 0.010275,0.013321 0.024631,0.041623 0.012315,0.0247 0.024631,0.0494004 0.013929,0.0266495 0.024631,0.0391056 0.012705,0.0147883 0.024631,0.0147883"
       stroke="#ffffff"
       fill="none"
       stroke-width="0.1"
       id="front-white"
       style="stroke-dasharray:none;stroke-opacity:1" />
  </g>
</svg>
